<svg width="800" height="800" viewBox="0 0 800 800" fill="none" xmlns="http://www.w3.org/2000/svg">
<rect width="800" height="800" fill="#02152B"/>
<path d="M412.217 691C355.558 691 304.21 682.858 258.174 666.573C212.846 649.58 174.955 624.091 144.5 590.106L229.49 514.701C253.57 539.482 281.546 558.245 313.417 570.989C345.288 583.026 379.638 589.044 416.467 589.044C429.923 589.044 443.38 587.982 456.837 585.858C470.294 583.026 482.334 579.131 492.957 574.175C504.289 569.219 512.788 562.847 518.454 555.058C524.828 546.562 528.016 537.004 528.016 526.383C528.016 507.974 517.392 493.814 496.145 483.901C483.396 479.653 467.815 475.051 449.4 470.095C430.986 464.431 409.738 459.12 385.658 454.164C344.58 445.668 308.813 435.755 278.359 424.427C248.612 413.099 224.532 399.292 206.117 383.007C191.244 369.555 179.912 353.978 172.122 336.277C164.331 317.869 160.436 297.336 160.436 274.679C160.436 249.898 166.456 227.241 178.496 206.708C191.244 186.175 208.596 168.828 230.552 154.668C253.216 139.799 279.067 128.471 308.105 120.682C337.851 112.894 369.368 109 402.656 109C433.111 109 463.919 112.54 495.082 119.62C526.245 125.993 555.283 135.551 582.196 148.296C609.818 161.04 633.19 177.325 652.313 197.15L582.196 278.927C566.615 266.182 548.555 254.854 528.016 244.942C507.476 234.321 486.229 225.825 464.273 219.453C442.318 213.08 421.779 209.894 402.656 209.894C388.491 209.894 374.326 211.31 360.161 214.142C345.996 216.266 333.602 219.807 322.978 224.763C313.063 229.011 304.918 235.029 298.544 242.818C292.878 249.898 290.045 258.748 290.045 269.369C289.336 277.157 291.107 284.591 295.357 291.672C300.314 298.044 306.334 304.062 313.417 309.726C324.749 316.807 340.33 323.179 360.161 328.843C380.7 334.507 405.489 340.526 434.527 346.898C473.481 354.686 507.476 364.245 536.515 375.573C566.261 386.193 590.695 398.938 609.818 413.807C624.691 425.843 636.023 440.358 643.814 457.35C651.605 473.635 655.5 492.398 655.5 513.639C655.5 549.04 644.522 580.193 622.567 607.099C601.319 633.296 572.635 653.828 536.515 668.697C500.394 683.566 458.962 691 412.217 691Z" fill="white"/>
</svg>
