<svg width="520" height="118" viewBox="0 0 520 118" fill="none" xmlns="http://www.w3.org/2000/svg">
<path d="M503.502 18.34V0.699951H505.021L512.518 12.754H510.95L518.349 0.699951H519.868V18.34H517.614V3.49295H519.182L512.567 14.126H510.803L504.188 3.49295H505.756V18.34H503.502ZM493.114 18.34V1.87595H495.368V18.34H493.114ZM487.528 2.85595V0.699951H500.954V2.85595H487.528Z" fill="white"/>
<path d="M450.238 117.56C445.558 117.56 441.138 116.988 436.978 115.844C432.922 114.596 429.178 112.88 425.746 110.696C422.314 108.408 419.35 105.652 416.854 102.428C414.462 99.2041 412.642 95.7721 411.394 92.1321L414.826 94.7841L414.046 116H406.558V0.560059H414.358V55.3161L411.55 58.1241C412.902 54.4841 414.774 51.1041 417.166 47.9841C419.558 44.7601 422.47 42.0561 425.902 39.8721C429.334 37.6881 433.13 36.0241 437.29 34.8801C441.45 33.6321 445.922 33.0081 450.706 33.0081C458.61 33.0081 465.734 34.8281 472.078 38.4681C478.422 42.1081 483.466 47.1521 487.21 53.6001C490.954 59.9441 492.826 67.2241 492.826 75.4401C492.826 83.4481 490.954 90.6241 487.21 96.9681C483.57 103.312 478.526 108.356 472.078 112.1C465.734 115.74 458.454 117.56 450.238 117.56ZM449.458 109.76C456.426 109.76 462.51 108.252 467.71 105.236C473.014 102.22 477.174 98.1121 480.19 92.9121C483.206 87.7121 484.714 81.8361 484.714 75.2841C484.714 68.5241 483.154 62.5961 480.034 57.5001C477.018 52.3001 472.858 48.1921 467.554 45.1761C462.25 42.1601 456.27 40.6521 449.614 40.6521C442.438 40.6521 436.146 42.1601 430.738 45.1761C425.33 48.1921 421.118 52.3001 418.102 57.5001C415.086 62.5961 413.578 68.4721 413.578 75.1281C413.578 81.8881 415.138 87.8681 418.258 93.0681C421.378 98.2681 425.642 102.376 431.05 105.392C436.458 108.304 442.594 109.76 449.458 109.76Z" fill="white"/>
<path d="M360.421 117.56C355.741 117.56 351.321 116.988 347.161 115.844C343.105 114.596 339.361 112.88 335.929 110.696C332.497 108.408 329.533 105.652 327.037 102.428C324.645 99.2041 322.825 95.7721 321.577 92.1321L325.009 94.7841L324.229 116H316.741V0.560059H324.541V55.3161L321.733 58.1241C323.085 54.4841 324.957 51.1041 327.349 47.9841C329.741 44.7601 332.653 42.0561 336.085 39.8721C339.517 37.6881 343.313 36.0241 347.473 34.8801C351.633 33.6321 356.105 33.0081 360.889 33.0081C368.793 33.0081 375.917 34.8281 382.261 38.4681C388.605 42.1081 393.649 47.1521 397.393 53.6001C401.137 59.9441 403.009 67.2241 403.009 75.4401C403.009 83.4481 401.137 90.6241 397.393 96.9681C393.753 103.312 388.709 108.356 382.261 112.1C375.917 115.74 368.637 117.56 360.421 117.56ZM359.641 109.76C366.609 109.76 372.693 108.252 377.893 105.236C383.197 102.22 387.357 98.1121 390.373 92.9121C393.389 87.7121 394.897 81.8361 394.897 75.2841C394.897 68.5241 393.337 62.5961 390.217 57.5001C387.201 52.3001 383.041 48.1921 377.737 45.1761C372.433 42.1601 366.453 40.6521 359.797 40.6521C352.621 40.6521 346.329 42.1601 340.921 45.1761C335.513 48.1921 331.301 52.3001 328.285 57.5001C325.269 62.5961 323.761 68.4721 323.761 75.1281C323.761 81.8881 325.321 87.8681 328.441 93.0681C331.561 98.2681 335.825 102.376 341.233 105.392C346.641 108.304 352.777 109.76 359.641 109.76Z" fill="#16C5BB"/>
<path d="M262.023 117.56C255.575 117.56 249.959 116.104 245.175 113.192C240.391 110.28 236.647 106.068 233.943 100.556C231.343 95.044 230.043 88.44 230.043 80.744V33.788H249.231V76.064C249.231 81.368 249.959 85.84 251.415 89.48C252.975 93.016 255.263 95.72 258.279 97.592C261.399 99.464 265.195 100.4 269.667 100.4C272.891 100.4 275.855 99.88 278.559 98.84C281.367 97.8 283.811 96.344 285.891 94.472C287.971 92.496 289.583 90.208 290.727 87.608C291.975 84.904 292.599 81.94 292.599 78.716V33.788H311.787V116H293.067L292.755 98.84L296.187 96.968C294.939 100.608 292.703 103.988 289.479 107.108C286.255 110.228 282.303 112.776 277.623 114.752C273.047 116.624 267.847 117.56 262.023 117.56Z" fill="white"/>
<path d="M167.129 116V33.788H186.005L186.473 61.556L182.573 57.812C183.925 53.028 186.213 48.712 189.437 44.864C192.765 40.912 196.561 37.792 200.825 35.504C205.089 33.216 209.509 32.072 214.085 32.072C216.685 32.072 219.233 32.332 221.729 32.852C224.225 33.372 226.201 34.048 227.657 34.88L222.509 55.628C220.845 54.588 218.817 53.808 216.425 53.288C214.137 52.664 211.797 52.352 209.405 52.352C206.077 52.352 203.009 52.976 200.201 54.224C197.393 55.368 194.949 56.98 192.869 59.06C190.893 61.036 189.333 63.324 188.189 65.924C187.045 68.42 186.473 71.124 186.473 74.036V116H167.129Z" fill="white"/>
<path d="M95.1769 92.7561L92.3689 74.8161L138.701 33.7881H164.753L95.1769 92.7561ZM78.1729 116V0.560059H96.8929V116H78.1729ZM141.197 116L106.253 75.5961L119.513 64.0521L165.065 116H141.197Z" fill="white"/>
<path d="M39.764 117.56C31.444 117.56 23.904 116.364 17.144 113.972C10.488 111.476 4.924 107.732 0.451996 102.74L12.932 91.664C16.468 95.304 20.576 98.06 25.256 99.932C29.936 101.7 34.98 102.584 40.388 102.584C42.364 102.584 44.34 102.428 46.316 102.116C48.292 101.7 50.06 101.128 51.62 100.4C53.284 99.672 54.532 98.736 55.364 97.592C56.3 96.344 56.768 94.94 56.768 93.38C56.768 90.676 55.208 88.596 52.088 87.14C50.216 86.516 47.928 85.84 45.224 85.112C42.52 84.28 39.4 83.5 35.864 82.772C29.832 81.524 24.58 80.068 20.108 78.404C15.74 76.74 12.204 74.712 9.5 72.32C7.316 70.344 5.652 68.056 4.508 65.456C3.364 62.752 2.792 59.736 2.792 56.408C2.792 52.768 3.676 49.44 5.444 46.424C7.316 43.408 9.864 40.86 13.088 38.78C16.416 36.596 20.212 34.932 24.476 33.788C28.844 32.644 33.472 32.072 38.36 32.072C42.832 32.072 47.356 32.592 51.932 33.632C56.508 34.568 60.772 35.972 64.724 37.844C68.78 39.716 72.212 42.108 75.02 45.02L64.724 57.032C62.436 55.16 59.784 53.496 56.768 52.04C53.752 50.48 50.632 49.232 47.408 48.296C44.184 47.36 41.168 46.892 38.36 46.892C36.28 46.892 34.2 47.1 32.12 47.516C30.04 47.828 28.22 48.348 26.66 49.076C25.204 49.7 24.008 50.584 23.072 51.728C22.24 52.768 21.824 54.068 21.824 55.628C21.72 56.772 21.98 57.864 22.604 58.904C23.332 59.84 24.216 60.724 25.256 61.556C26.92 62.596 29.208 63.532 32.12 64.364C35.136 65.196 38.776 66.08 43.04 67.016C48.76 68.16 53.752 69.564 58.016 71.228C62.384 72.788 65.972 74.66 68.78 76.844C70.964 78.612 72.628 80.744 73.772 83.24C74.916 85.632 75.488 88.388 75.488 91.508C75.488 96.708 73.876 101.284 70.652 105.236C67.532 109.084 63.32 112.1 58.016 114.284C52.712 116.468 46.628 117.56 39.764 117.56Z" fill="white"/>
</svg>
