<svg width="520" height="117" viewBox="0 0 520 117" fill="none" xmlns="http://www.w3.org/2000/svg">
<path d="M503.502 17.7799V0.139893H505.021L512.518 12.1939H510.95L518.349 0.139893H519.868V17.7799H517.614V2.93289H519.182L512.567 13.5659H510.803L504.188 2.93289H505.756V17.7799H503.502ZM493.114 17.7799V1.31589H495.368V17.7799H493.114ZM487.528 2.29589V0.139893H500.954V2.29589H487.528Z" fill="#02152B"/>
<path d="M450.238 117C445.558 117 441.138 116.428 436.978 115.284C432.922 114.036 429.178 112.32 425.746 110.136C422.314 107.848 419.35 105.092 416.854 101.868C414.462 98.644 412.642 95.212 411.394 91.572L414.826 94.224L414.046 115.44H406.558V0H414.358V54.756L411.55 57.564C412.902 53.924 414.774 50.544 417.166 47.424C419.558 44.2 422.47 41.496 425.902 39.312C429.334 37.128 433.13 35.464 437.29 34.32C441.45 33.072 445.922 32.448 450.706 32.448C458.61 32.448 465.734 34.268 472.078 37.908C478.422 41.548 483.466 46.592 487.21 53.04C490.954 59.384 492.826 66.664 492.826 74.88C492.826 82.888 490.954 90.064 487.21 96.408C483.57 102.752 478.526 107.796 472.078 111.54C465.734 115.18 458.454 117 450.238 117ZM449.458 109.2C456.426 109.2 462.51 107.692 467.71 104.676C473.014 101.66 477.174 97.552 480.19 92.352C483.206 87.152 484.714 81.276 484.714 74.724C484.714 67.964 483.154 62.036 480.034 56.94C477.018 51.74 472.858 47.632 467.554 44.616C462.25 41.6 456.27 40.092 449.614 40.092C442.438 40.092 436.146 41.6 430.738 44.616C425.33 47.632 421.118 51.74 418.102 56.94C415.086 62.036 413.578 67.912 413.578 74.568C413.578 81.328 415.138 87.308 418.258 92.508C421.378 97.708 425.642 101.816 431.05 104.832C436.458 107.744 442.594 109.2 449.458 109.2Z" fill="#02152B"/>
<path d="M360.421 117C355.741 117 351.321 116.428 347.161 115.284C343.105 114.036 339.361 112.32 335.929 110.136C332.497 107.848 329.533 105.092 327.037 101.868C324.645 98.644 322.825 95.212 321.577 91.572L325.009 94.224L324.229 115.44H316.741V0H324.541V54.756L321.733 57.564C323.085 53.924 324.957 50.544 327.349 47.424C329.741 44.2 332.653 41.496 336.085 39.312C339.517 37.128 343.313 35.464 347.473 34.32C351.633 33.072 356.105 32.448 360.889 32.448C368.793 32.448 375.917 34.268 382.261 37.908C388.605 41.548 393.649 46.592 397.393 53.04C401.137 59.384 403.009 66.664 403.009 74.88C403.009 82.888 401.137 90.064 397.393 96.408C393.753 102.752 388.709 107.796 382.261 111.54C375.917 115.18 368.637 117 360.421 117ZM359.641 109.2C366.609 109.2 372.693 107.692 377.893 104.676C383.197 101.66 387.357 97.552 390.373 92.352C393.389 87.152 394.897 81.276 394.897 74.724C394.897 67.964 393.337 62.036 390.217 56.94C387.201 51.74 383.041 47.632 377.737 44.616C372.433 41.6 366.453 40.092 359.797 40.092C352.621 40.092 346.329 41.6 340.921 44.616C335.513 47.632 331.301 51.74 328.285 56.94C325.269 62.036 323.761 67.912 323.761 74.568C323.761 81.328 325.321 87.308 328.441 92.508C331.561 97.708 335.825 101.816 341.233 104.832C346.641 107.744 352.777 109.2 359.641 109.2Z" fill="#16C5BB"/>
<path d="M262.023 117C255.575 117 249.959 115.544 245.175 112.632C240.391 109.72 236.647 105.508 233.943 99.9959C231.343 94.4839 230.043 87.8799 230.043 80.1839V33.2279H249.231V75.5039C249.231 80.8079 249.959 85.2799 251.415 88.9199C252.975 92.4559 255.263 95.1599 258.279 97.0319C261.399 98.9039 265.195 99.8399 269.667 99.8399C272.891 99.8399 275.855 99.3199 278.559 98.2799C281.367 97.2399 283.811 95.7839 285.891 93.9119C287.971 91.9359 289.583 89.6479 290.727 87.0479C291.975 84.3439 292.599 81.3799 292.599 78.1559V33.2279H311.787V115.44H293.067L292.755 98.2799L296.187 96.4079C294.939 100.048 292.703 103.428 289.479 106.548C286.255 109.668 282.303 112.216 277.623 114.192C273.047 116.064 267.847 117 262.023 117Z" fill="#02152B"/>
<path d="M167.129 115.44V33.228H186.005L186.473 60.996L182.573 57.252C183.925 52.468 186.213 48.152 189.437 44.304C192.765 40.352 196.561 37.232 200.825 34.944C205.089 32.656 209.509 31.512 214.085 31.512C216.685 31.512 219.233 31.772 221.729 32.292C224.225 32.812 226.201 33.488 227.657 34.32L222.509 55.068C220.845 54.028 218.817 53.248 216.425 52.728C214.137 52.104 211.797 51.792 209.405 51.792C206.077 51.792 203.009 52.416 200.201 53.664C197.393 54.808 194.949 56.42 192.869 58.5C190.893 60.476 189.333 62.764 188.189 65.364C187.045 67.86 186.473 70.564 186.473 73.476V115.44H167.129Z" fill="#02152B"/>
<path d="M95.1769 92.196L92.3689 74.256L138.701 33.228H164.753L95.1769 92.196ZM78.1729 115.44V0H96.8929V115.44H78.1729ZM141.197 115.44L106.253 75.036L119.513 63.492L165.065 115.44H141.197Z" fill="#02152B"/>
<path d="M39.764 117C31.444 117 23.904 115.804 17.144 113.412C10.488 110.916 4.924 107.172 0.451996 102.18L12.932 91.104C16.468 94.744 20.576 97.5 25.256 99.372C29.936 101.14 34.98 102.024 40.388 102.024C42.364 102.024 44.34 101.868 46.316 101.556C48.292 101.14 50.06 100.568 51.62 99.84C53.284 99.112 54.532 98.176 55.364 97.032C56.3 95.784 56.768 94.38 56.768 92.82C56.768 90.116 55.208 88.036 52.088 86.58C50.216 85.956 47.928 85.28 45.224 84.552C42.52 83.72 39.4 82.94 35.864 82.212C29.832 80.964 24.58 79.508 20.108 77.844C15.74 76.18 12.204 74.152 9.5 71.76C7.316 69.784 5.652 67.496 4.508 64.896C3.364 62.192 2.792 59.176 2.792 55.848C2.792 52.208 3.676 48.88 5.444 45.864C7.316 42.848 9.864 40.3 13.088 38.22C16.416 36.036 20.212 34.372 24.476 33.228C28.844 32.084 33.472 31.512 38.36 31.512C42.832 31.512 47.356 32.032 51.932 33.072C56.508 34.008 60.772 35.412 64.724 37.284C68.78 39.156 72.212 41.548 75.02 44.46L64.724 56.472C62.436 54.6 59.784 52.936 56.768 51.48C53.752 49.92 50.632 48.672 47.408 47.736C44.184 46.8 41.168 46.332 38.36 46.332C36.28 46.332 34.2 46.54 32.12 46.956C30.04 47.268 28.22 47.788 26.66 48.516C25.204 49.14 24.008 50.024 23.072 51.168C22.24 52.208 21.824 53.508 21.824 55.068C21.72 56.212 21.98 57.304 22.604 58.344C23.332 59.28 24.216 60.164 25.256 60.996C26.92 62.036 29.208 62.972 32.12 63.804C35.136 64.636 38.776 65.52 43.04 66.456C48.76 67.6 53.752 69.004 58.016 70.668C62.384 72.228 65.972 74.1 68.78 76.284C70.964 78.052 72.628 80.184 73.772 82.68C74.916 85.072 75.488 87.828 75.488 90.948C75.488 96.148 73.876 100.724 70.652 104.676C67.532 108.524 63.32 111.54 58.016 113.724C52.712 115.908 46.628 117 39.764 117Z" fill="#02152B"/>
</svg>
